<?xml version="1.0" encoding="UTF-8"?>
<svg width="133px" height="19px" viewBox="0 0 133 19" version="1.1" xmlns="http://www.w3.org/2000/svg" xmlns:xlink="http://www.w3.org/1999/xlink">
    <title>Logo/Black</title>
    <g id="Symbols" stroke="none" stroke-width="1" fill="none" fill-rule="evenodd">
        <g id="Elements/NAV/Desktop/0" transform="translate(-60.000000, -38.000000)" fill="#FFFFFF">
            <g id="Logo/Black" transform="translate(60.000000, 38.000000)">
                <path d="M60.8161746,0 C57.3301174,0 55.2704013,1.99432155 55.2704013,4.73039076 C55.2704013,10.4372675 64.0129738,9.93089432 64.0129738,13.7872188 C64.0129738,15.6301373 62.5747882,16.7185852 60.3629622,16.7185852 C58.3624691,16.6708742 56.4504989,15.8680564 54.9967283,14.4653517 L54.9967283,17.2853924 C56.5795429,18.3865632 58.4472516,18.981997 60.3629622,18.9959923 C63.8801894,18.9959923 66.483511,17.0455649 66.483511,13.7477777 C66.483511,7.65348726 57.7209897,8.42704228 57.7209897,4.60634205 C57.7209897,3.27806665 58.7327692,2.27740706 60.819915,2.27740706 C62.5280331,2.31621204 64.1794218,2.90973741 65.5334483,3.97210327 L65.5334483,1.29646804 C64.0965095,0.458026002 62.471927,0.01145065 60.8161746,0 M2.46617348,0.227359018 L0,0.227359018 L0,18.7691422 L10.7673782,18.7691422 L10.7673782,16.39186 L2.46617348,16.39186 L2.46617348,0.227359018 Z M92.7176496,13.0735252 L96.1295221,4.66238662 L99.6903873,13.0735252 L92.7176496,13.0735252 Z M95.6918947,0.111389379 L87.8401619,18.7689513 L90.3923647,18.7689513 L91.8187057,15.2472403 L100.596812,15.2472403 L102.097961,18.7689513 L104.731829,18.7689513 L96.5241348,0.111389379 L95.6918947,0.111389379 Z M110.555203,0.227359018 L108.08903,0.227359018 L108.08903,18.7691422 L118.856408,18.7691422 L118.856408,16.39186 L110.555203,16.39186 L110.555203,0.227359018 Z M125.022964,16.4795211 L125.022964,10.2141071 L132.163396,10.2141071 L132.163396,8.03657512 L125.022964,8.03657512 L125.022964,2.51672565 L133,2.51672565 L133,0.227231789 L122.55305,0.227231789 L122.55305,18.7690149 L133,18.7690149 L133,16.4795211 L125.022964,16.4795211 Z M76.9686134,16.4795211 L73.1851941,16.4795211 L73.1851941,2.52054253 L76.9686134,2.52054253 C78.5907022,2.52054253 83.7649287,3.23048284 83.7649287,9.50034988 C83.7649287,15.7695808 78.5907022,16.4795211 76.9686134,16.4795211 Z M76.6244962,0.227231789 L70.7190206,0.227231789 L70.7190206,18.7690149 L76.6244962,18.7690149 C82.1434633,18.7690149 86.3171315,15.4502349 86.3171315,9.49589685 C86.3171315,3.54155883 82.1434633,0.227231789 76.6244962,0.227231789 L76.6244962,0.227231789 Z M21.7043838,16.4954884 C17.9159773,16.4954884 14.8451051,13.3618271 14.8451051,9.49596047 C14.8451051,5.63009378 17.9159773,2.49643255 21.7043838,2.49643255 C25.4927903,2.49643255 28.5636626,5.63009378 28.5636626,9.49596047 C28.5636626,13.3618271 25.4927903,16.4954884 21.7043838,16.4954884 Z M21.7043838,0.000190844167 C16.5625742,0.000190844167 12.3945166,4.25347119 12.3945166,9.49977735 C12.3945166,14.7467197 16.5625742,19 21.7043838,19 C26.8461934,19 31.014251,14.7467197 31.014251,9.49977735 L31.014251,9.49596047 C31.014251,4.25156275 26.8474402,0.000190844167 21.7081242,0.000190844167 C21.7068774,0.000190844167 21.7056306,0.000190844167 21.7043838,0.000190844167 L21.7043838,0.000190844167 Z M48.3220385,13.0815407 L36.0965259,0.227549862 L35.0298871,0.227549862 L35.0298871,18.7686969 L37.4960606,18.7686969 L37.4960606,5.17295839 L48.3220385,16.3837809 L48.3220385,18.7686969 L50.7607824,18.7686969 L50.7607824,0.227549862 L48.3220385,0.227549862 L48.3220385,13.0815407 Z" id="Combined-Shape"></path>
            </g>
        </g>
    </g>
</svg>