<?xml version="1.0" encoding="utf-8"?>
<!-- Generator: $$$/GeneralStr/196=Adobe Illustrator 27.6.0, SVG Export Plug-In . SVG Version: 6.00 Build 0)  -->
<svg version="1.1" xmlns="http://www.w3.org/2000/svg" xmlns:xlink="http://www.w3.org/1999/xlink" x="0px" y="0px"
	 viewBox="0 0 180 180" style="enable-background:new 0 0 180 180;" xml:space="preserve">
<style type="text/css">
	.st0{fill:#FFFFFF;}
</style>
<g id="Calque_2">
	<rect y="0" width="180" height="180"/>
</g>
<g id="Calque_1">
	<path class="st0" d="M69.6,83.4h6.3v-36h-6.3V83.4z M105.5,132.6h6v-36h-6.3C105.5,96.6,105.5,132.6,105.5,132.6z M90,154.2
		c-35.4,0-64.2-28.8-64.2-64.2S54.3,25.8,90,25.8c35.4,0,64.2,28.8,64.2,64.2S125.4,154.2,90,154.2 M90,19.5
		c-38.8,0-70.5,31.6-70.5,70.5s31.6,70.5,70.5,70.5s70.5-31.6,70.5-70.5S128.8,19.5,90,19.5 M78.8,107.8c-0.9,0-2,0-2.9,0.3
		l7.2-11.8h-7.5l-6.9,12.4c-3.2,5.2-4,8.6-4,11.8c0,7.2,6,12.9,13.5,12.9c7.2,0,13.5-6,13.5-12.9C91.4,112.4,85.1,107.8,78.8,107.8z
		 M77.9,126.8c-4,0-7.2-3.2-7.2-6.9c0-4,3.2-7.2,7.2-7.2s7.2,3.2,7.2,7.2C85.1,124.2,81.9,126.8,77.9,126.8z M103.2,46.6
		c-7.2,0-13.5,6-13.5,12.9c0,7.8,6,12.4,12.7,12.4c0.9,0,2,0,2.9-0.3l-7.2,11.8h7.2l7.2-12.1c3.2-5.2,4-8.6,4-11.8
		C116.5,52.6,110.7,46.6,103.2,46.6z M103.2,66.7c-4,0-7.2-3.2-7.2-7.2c0-3.7,3.2-6.9,7.2-6.9s7.2,3.2,7.2,6.9
		C110.1,63.5,107.3,66.7,103.2,66.7z"/>
</g>
</svg>
